<svg xmlns="http://www.w3.org/2000/svg" width="1142" height="1377" viewBox="0 0 1142 1377" style="left: 0px; top: 0px; width: 100%; height: 100%; display: block; min-width: 1127px; min-height: 1364px;"><g><g/><g><g style="visibility: visible;"><rect x="17" y="14" width="1108" height="248" fill="#ffffff" stroke="#26323d" stroke-width="2.4" pointer-events="all"/></g><g transform="translate(0.5,0.5)" style="visibility: visible;"><rect x="19" y="16" width="1104" height="58" fill="#f3f4f5" stroke="none" pointer-events="all"/></g><g style="visibility: visible;"><path d="M 18 75 L 1124 75" fill="none" stroke="white" stroke-width="10" stroke-miterlimit="10" pointer-events="stroke" visibility="hidden"/><path d="M 18 75 L 1124 75" fill="none" stroke="#26323d" stroke-width="2" stroke-miterlimit="10" pointer-events="stroke"/></g><g transform="translate(0.5,0.5)" style="visibility: visible;"><rect x="36" y="15" width="1070" height="59" fill="none" stroke="white" pointer-events="stroke" visibility="hidden" stroke-width="9"/><rect x="36" y="15" width="1070" height="59" fill="none" stroke="none" pointer-events="all"/></g><g style=""><clipPath id="mx-clip-34-6-1074-63-0"><rect x="34" y="6" width="1074" height="63"/></clipPath><g fill="#26323D" font-family="Times New Roman" font-weight="bold" clip-path="url(about:blank#mx-clip-34-6-1074-63-0)" text-anchor="middle" font-size="50px"><text x="571" y="61.5">(a) Device modeling</text></g></g><g transform="translate(0.5,0.5)" style="visibility: visible;"><rect x="42" y="95" width="298" height="104" rx="6" ry="6" fill="#d5e5f5" stroke="#26323d" stroke-width="2.5" pointer-events="all"/></g><g style=""><clipPath id="mx-clip-44-92-294-100-0"><rect x="44" y="92" width="294" height="100"/></clipPath><g fill="#26323D" font-family="Times New Roman" clip-path="url(about:blank#mx-clip-44-92-294-100-0)" text-anchor="middle" font-size="40px"><text x="191" y="136.5">DUT</text><text x="191" y="184.5">Native driver</text></g></g><g transform="translate(0.5,0.5)" style="visibility: visible;"><rect x="426" y="95" width="294" height="104" rx="6" ry="6" fill="#f2f2f2" stroke="#26323d" stroke-width="2.5" pointer-events="all"/></g><g style=""><clipPath id="mx-clip-428-92-290-100-0"><rect x="428" y="92" width="290" height="100"/></clipPath><g fill="#26323D" font-family="Times New Roman" clip-path="url(about:blank#mx-clip-428-92-290-100-0)" text-anchor="middle" font-size="40px"><text x="573" y="160.5">Device model</text></g></g><g transform="translate(0.5,0.5)" style="visibility: visible;"><rect x="808" y="95" width="294" height="104" rx="6" ry="6" fill="#f2f2f2" stroke="#26323d" stroke-width="2.5" stroke-dasharray="15 12.5" pointer-events="all"/></g><g style=""><clipPath id="mx-clip-810-92-290-100-0"><rect x="810" y="92" width="290" height="100"/></clipPath><g fill="#26323D" font-family="Times New Roman" clip-path="url(about:blank#mx-clip-810-92-290-100-0)" text-anchor="middle" font-size="40px"><text x="955" y="136.5">Simulated</text><text x="955" y="184.5">responses</text></g></g><g transform="translate(0.5,0.5)" style="visibility: visible;"><path d="M 340 147 L 400.47 147" fill="none" stroke="white" stroke-width="12.5" stroke-miterlimit="10" pointer-events="stroke" visibility="hidden"/><path d="M 340 147 L 400.47 147" fill="none" stroke="#4f6070" stroke-width="4.5" stroke-miterlimit="10" pointer-events="stroke"/><path d="M 420.97 147 L 400.47 157.25 L 400.47 136.75 Z" fill="#4f6070" stroke="#4f6070" stroke-width="4.5" stroke-miterlimit="10" pointer-events="all"/></g><g transform="translate(0.5,0.5)" style="visibility: visible;"><path d="M 720 147 L 782.47 147" fill="none" stroke="white" stroke-width="12.5" stroke-miterlimit="10" pointer-events="stroke" visibility="hidden"/><path d="M 720 147 L 782.47 147" fill="none" stroke="#4f6070" stroke-width="4.5" stroke-miterlimit="10" pointer-events="stroke"/><path d="M 802.97 147 L 782.47 157.25 L 782.47 136.75 Z" fill="#4f6070" stroke="#4f6070" stroke-width="4.5" stroke-miterlimit="10" pointer-events="all"/></g><g transform="translate(0.5,0.5)" style="visibility: visible;"><rect x="40" y="208" width="1060" height="48" fill="none" stroke="white" pointer-events="stroke" visibility="hidden" stroke-width="9"/><rect x="40" y="208" width="1060" height="48" fill="none" stroke="none" pointer-events="all"/></g><g style=""><clipPath id="mx-clip-38-201-1064-52-0"><rect x="38" y="201" width="1064" height="52"/></clipPath><g fill="#26323D" font-family="Times New Roman" clip-path="url(about:blank#mx-clip-38-201-1064-52-0)" text-anchor="middle" font-size="40px"><text x="570" y="245.5">Configurable view; modeled execution</text></g></g><g style="visibility: visible;"><rect x="17" y="282" width="1108" height="249" fill="#ffffff" stroke="#26323d" stroke-width="2.4" pointer-events="all"/></g><g transform="translate(0.5,0.5)" style="visibility: visible;"><rect x="19" y="284" width="1104" height="58" fill="#f3f4f5" stroke="none" pointer-events="all"/></g><g style="visibility: visible;"><path d="M 18 343 L 1124 343" fill="none" stroke="white" stroke-width="10" stroke-miterlimit="10" pointer-events="stroke" visibility="hidden"/><path d="M 18 343 L 1124 343" fill="none" stroke="#26323d" stroke-width="2" stroke-miterlimit="10" pointer-events="stroke"/></g><g transform="translate(0.5,0.5)" style="visibility: visible;"><rect x="36" y="283" width="1070" height="59" fill="none" stroke="white" pointer-events="stroke" visibility="hidden" stroke-width="9"/><rect x="36" y="283" width="1070" height="59" fill="none" stroke="none" pointer-events="all"/></g><g style=""><clipPath id="mx-clip-34-274-1074-63-0"><rect x="34" y="274" width="1074" height="63"/></clipPath><g fill="#26323D" font-family="Times New Roman" font-weight="bold" clip-path="url(about:blank#mx-clip-34-274-1074-63-0)" text-anchor="middle" font-size="50px"><text x="571" y="329.5">(b) Direct attachment</text></g></g><g transform="translate(0.5,0.5)" style="visibility: visible;"><rect x="42" y="362" width="298" height="104" rx="6" ry="6" fill="#d5e5f5" stroke="#26323d" stroke-width="2.5" pointer-events="all"/></g><g style=""><clipPath id="mx-clip-44-359-294-100-0"><rect x="44" y="359" width="294" height="100"/></clipPath><g fill="#26323D" font-family="Times New Roman" clip-path="url(about:blank#mx-clip-44-359-294-100-0)" text-anchor="middle" font-size="40px"><text x="191" y="403.5">DUT</text><text x="191" y="451.5">Native driver</text></g></g><g transform="translate(0.5,0.5)" style="visibility: visible;"><rect x="426" y="362" width="294" height="104" rx="6" ry="6" fill="#f2f2f2" stroke="#26323d" stroke-width="2.5" pointer-events="all"/></g><g style=""><clipPath id="mx-clip-428-359-290-100-0"><rect x="428" y="359" width="290" height="100"/></clipPath><g fill="#26323D" font-family="Times New Roman" clip-path="url(about:blank#mx-clip-428-359-290-100-0)" text-anchor="middle" font-size="40px"><text x="573" y="403.5">Fixed</text><text x="573" y="451.5">attachment</text></g></g><g transform="translate(0.5,0.5)" style="visibility: visible;"><rect x="808" y="362" width="294" height="104" rx="6" ry="6" fill="#ddecdd" stroke="#26323d" stroke-width="2.5" pointer-events="all"/></g><g style=""><clipPath id="mx-clip-810-359-290-100-0"><rect x="810" y="359" width="290" height="100"/></clipPath><g fill="#26323D" font-family="Times New Roman" clip-path="url(about:blank#mx-clip-810-359-290-100-0)" text-anchor="middle" font-size="40px"><text x="955" y="403.5">Physical</text><text x="955" y="451.5">device</text></g></g><g transform="translate(0.5,0.5)" style="visibility: visible;"><path d="M 340 414 L 400.47 414" fill="none" stroke="white" stroke-width="12.5" stroke-miterlimit="10" pointer-events="stroke" visibility="hidden"/><path d="M 340 414 L 400.47 414" fill="none" stroke="#4f6070" stroke-width="4.5" stroke-miterlimit="10" pointer-events="stroke"/><path d="M 420.97 414 L 400.47 424.25 L 400.47 403.75 Z" fill="#4f6070" stroke="#4f6070" stroke-width="4.5" stroke-miterlimit="10" pointer-events="all"/></g><g transform="translate(0.5,0.5)" style="visibility: visible;"><path d="M 720 414 L 782.47 414" fill="none" stroke="white" stroke-width="12.5" stroke-miterlimit="10" pointer-events="stroke" visibility="hidden"/><path d="M 720 414 L 782.47 414" fill="none" stroke="#4f6070" stroke-width="4.5" stroke-miterlimit="10" pointer-events="stroke"/><path d="M 802.97 414 L 782.47 424.25 L 782.47 403.75 Z" fill="#4f6070" stroke="#4f6070" stroke-width="4.5" stroke-miterlimit="10" pointer-events="all"/></g><g transform="translate(0.5,0.5)" style="visibility: visible;"><rect x="40" y="477" width="1060" height="48" fill="none" stroke="white" pointer-events="stroke" visibility="hidden" stroke-width="9"/><rect x="40" y="477" width="1060" height="48" fill="none" stroke="none" pointer-events="all"/></g><g style=""><clipPath id="mx-clip-38-470-1064-52-0"><rect x="38" y="470" width="1064" height="52"/></clipPath><g fill="#26323D" font-family="Times New Roman" clip-path="url(about:blank#mx-clip-38-470-1064-52-0)" text-anchor="middle" font-size="40px"><text x="570" y="514.5">Physical execution; attachment-defined view</text></g></g><g style="visibility: visible;"><rect x="17" y="550" width="1108" height="250" fill="#ffffff" stroke="#26323d" stroke-width="2.4" pointer-events="all"/></g><g transform="translate(0.5,0.5)" style="visibility: visible;"><rect x="19" y="552" width="1104" height="58" fill="#f3f4f5" stroke="none" pointer-events="all"/></g><g style="visibility: visible;"><path d="M 18 611 L 1124 611" fill="none" stroke="white" stroke-width="10" stroke-miterlimit="10" pointer-events="stroke" visibility="hidden"/><path d="M 18 611 L 1124 611" fill="none" stroke="#26323d" stroke-width="2" stroke-miterlimit="10" pointer-events="stroke"/></g><g transform="translate(0.5,0.5)" style="visibility: visible;"><rect x="36" y="551" width="1070" height="59" fill="none" stroke="white" pointer-events="stroke" visibility="hidden" stroke-width="9"/><rect x="36" y="551" width="1070" height="59" fill="none" stroke="none" pointer-events="all"/></g><g style=""><clipPath id="mx-clip-34-542-1074-63-0"><rect x="34" y="542" width="1074" height="63"/></clipPath><g fill="#26323D" font-family="Times New Roman" font-weight="bold" clip-path="url(about:blank#mx-clip-34-542-1074-63-0)" text-anchor="middle" font-size="50px"><text x="571" y="597.5">(c) SCOPE (prior work)</text></g></g><g transform="translate(0.5,0.5)" style="visibility: visible;"><rect x="42" y="631" width="298" height="104" rx="6" ry="6" fill="#d5e5f5" stroke="#26323d" stroke-width="2.5" pointer-events="all"/></g><g style=""><clipPath id="mx-clip-44-628-294-100-0"><rect x="44" y="628" width="294" height="100"/></clipPath><g fill="#26323D" font-family="Times New Roman" clip-path="url(about:blank#mx-clip-44-628-294-100-0)" text-anchor="middle" font-size="40px"><text x="191" y="672.5">Adapted DUT</text><text x="191" y="720.5">software</text></g></g><g transform="translate(0.5,0.5)" style="visibility: visible;"><rect x="426" y="631" width="294" height="104" rx="6" ry="6" fill="#f2f2f2" stroke="#26323d" stroke-width="2.5" pointer-events="all"/></g><g style=""><clipPath id="mx-clip-428-628-290-100-0"><rect x="428" y="628" width="290" height="100"/></clipPath><g fill="#26323D" font-family="Times New Roman" clip-path="url(about:blank#mx-clip-428-628-290-100-0)" text-anchor="middle" font-size="40px"><text x="573" y="672.5">Borrowing</text><text x="573" y="720.5">substrate</text></g></g><g transform="translate(0.5,0.5)" style="visibility: visible;"><rect x="808" y="631" width="294" height="104" rx="6" ry="6" fill="#ddecdd" stroke="#26323d" stroke-width="2.5" pointer-events="all"/></g><g style=""><clipPath id="mx-clip-810-628-290-100-0"><rect x="810" y="628" width="290" height="100"/></clipPath><g fill="#26323D" font-family="Times New Roman" clip-path="url(about:blank#mx-clip-810-628-290-100-0)" text-anchor="middle" font-size="40px"><text x="955" y="672.5">Physical</text><text x="955" y="720.5">device</text></g></g><g transform="translate(0.5,0.5)" style="visibility: visible;"><path d="M 340 683 L 400.47 683" fill="none" stroke="white" stroke-width="12.5" stroke-miterlimit="10" pointer-events="stroke" visibility="hidden"/><path d="M 340 683 L 400.47 683" fill="none" stroke="#4f6070" stroke-width="4.5" stroke-miterlimit="10" pointer-events="stroke"/><path d="M 420.97 683 L 400.47 693.25 L 400.47 672.75 Z" fill="#4f6070" stroke="#4f6070" stroke-width="4.5" stroke-miterlimit="10" pointer-events="all"/></g><g transform="translate(0.5,0.5)" style="visibility: visible;"><path d="M 720 683 L 782.47 683" fill="none" stroke="white" stroke-width="12.5" stroke-miterlimit="10" pointer-events="stroke" visibility="hidden"/><path d="M 720 683 L 782.47 683" fill="none" stroke="#4f6070" stroke-width="4.5" stroke-miterlimit="10" pointer-events="stroke"/><path d="M 802.97 683 L 782.47 693.25 L 782.47 672.75 Z" fill="#4f6070" stroke="#4f6070" stroke-width="4.5" stroke-miterlimit="10" pointer-events="all"/></g><g transform="translate(0.5,0.5)" style="visibility: visible;"><rect x="40" y="745" width="1060" height="48" fill="none" stroke="white" pointer-events="stroke" visibility="hidden" stroke-width="9"/><rect x="40" y="745" width="1060" height="48" fill="none" stroke="none" pointer-events="all"/></g><g style=""><clipPath id="mx-clip-38-738-1064-52-0"><rect x="38" y="738" width="1064" height="52"/></clipPath><g fill="#26323D" font-family="Times New Roman" clip-path="url(about:blank#mx-clip-38-738-1064-52-0)" text-anchor="middle" font-size="40px"><text x="570" y="782.5">Dedicated interface; physical execution</text></g></g><g style="visibility: visible;"><rect x="17" y="820" width="1108" height="542" fill="#ffffff" stroke="#26323d" stroke-width="2.4" pointer-events="all"/></g><g transform="translate(0.5,0.5)" style="visibility: visible;"><rect x="19" y="822" width="1104" height="58" fill="#f3f4f5" stroke="none" pointer-events="all"/></g><g style="visibility: visible;"><path d="M 18 881 L 1124 881" fill="none" stroke="white" stroke-width="10" stroke-miterlimit="10" pointer-events="stroke" visibility="hidden"/><path d="M 18 881 L 1124 881" fill="none" stroke="#26323d" stroke-width="2" stroke-miterlimit="10" pointer-events="stroke"/></g><g transform="translate(0.5,0.5)" style="visibility: visible;"><rect x="36" y="821" width="1070" height="59" fill="none" stroke="white" pointer-events="stroke" visibility="hidden" stroke-width="9"/><rect x="36" y="821" width="1070" height="59" fill="none" stroke="none" pointer-events="all"/></g><g style=""><clipPath id="mx-clip-34-812-1074-63-0"><rect x="34" y="812" width="1074" height="63"/></clipPath><g fill="#26323D" font-family="Times New Roman" font-weight="bold" clip-path="url(about:blank#mx-clip-34-812-1074-63-0)" text-anchor="middle" font-size="50px"><text x="571" y="867.5">(d) SCOPE v2 (this work)</text></g></g><g style="visibility: visible;"><rect x="42" y="897" width="633" height="415" fill="#ffffff" stroke="#4f6070" stroke-width="2" stroke-dasharray="12 10" pointer-events="all"/></g><g transform="translate(0.5,0.5)" style="visibility: visible;"><rect x="56" y="900" width="605" height="50" fill="none" stroke="white" pointer-events="stroke" visibility="hidden" stroke-width="9"/><rect x="56" y="900" width="605" height="50" fill="none" stroke="none" pointer-events="all"/></g><g style=""><clipPath id="mx-clip-54-893-609-54-0"><rect x="54" y="893" width="609" height="54"/></clipPath><g fill="#26323D" font-family="Times New Roman" font-weight="bold" clip-path="url(about:blank#mx-clip-54-893-609-54-0)" text-anchor="middle" font-size="40px"><text x="358.5" y="938.5">FPGA prototype</text></g></g><g transform="translate(0.5,0.5)" style="visibility: visible;"><rect x="55" y="936" width="607" height="94" fill="none" stroke="white" pointer-events="stroke" visibility="hidden" stroke-width="9"/><rect x="55" y="936" width="607" height="94" fill="none" stroke="none" pointer-events="all"/></g><g style=""><clipPath id="mx-clip-53-929-611-98-0"><rect x="53" y="929" width="611" height="98"/></clipPath><g fill="#26323D" font-family="Times New Roman" clip-path="url(about:blank#mx-clip-53-929-611-98-0)" text-anchor="middle" font-size="38px"><text x="358.5" y="972.5">Software-selected</text><text x="358.5" y="1018.5">device hierarchy and binding</text></g></g><g transform="translate(0.5,0.5)" style="visibility: visible;"><rect x="61" y="1037" width="258" height="101" rx="6" ry="6" fill="#d5e5f5" stroke="#26323d" stroke-width="2.5" pointer-events="all"/></g><g style=""><clipPath id="mx-clip-63-1034-254-97-0"><rect x="63" y="1034" width="254" height="97"/></clipPath><g fill="#26323D" font-family="Times New Roman" clip-path="url(about:blank#mx-clip-63-1034-254-97-0)" text-anchor="middle" font-size="40px"><text x="190" y="1077">DUT</text><text x="190" y="1125">Native driver</text></g></g><g transform="translate(0.5,0.5)" style="visibility: visible;"><rect x="418" y="1037" width="237" height="101" rx="6" ry="6" fill="#f2f2f2" stroke="#26323d" stroke-width="2.5" pointer-events="all"/></g><g style=""><clipPath id="mx-clip-420-1034-233-97-0"><rect x="420" y="1034" width="233" height="97"/></clipPath><g fill="#26323D" font-family="Times New Roman" clip-path="url(about:blank#mx-clip-420-1034-233-97-0)" text-anchor="middle" font-size="40px"><text x="536.5" y="1077">FPGA</text><text x="536.5" y="1125">front-end</text></g></g><g transform="translate(0.5,0.5)" style="visibility: visible;"><rect x="848" y="1037" width="260" height="101" rx="6" ry="6" fill="#d5e5f5" stroke="#26323d" stroke-width="2.5" pointer-events="all"/></g><g style=""><clipPath id="mx-clip-850-1034-256-97-0"><rect x="850" y="1034" width="256" height="97"/></clipPath><g fill="#26323D" font-family="Times New Roman" clip-path="url(about:blank#mx-clip-850-1034-256-97-0)" text-anchor="middle" font-size="40px"><text x="978" y="1077">Host software</text><text x="978" y="1125">back-end</text></g></g><g transform="translate(0.5,0.5)" style="visibility: visible;"><rect x="61" y="1198" width="258" height="96" rx="6" ry="6" fill="#f2f2f2" stroke="#26323d" stroke-width="2.5" pointer-events="all"/></g><g style=""><clipPath id="mx-clip-63-1195-254-92-0"><rect x="63" y="1195" width="254" height="92"/></clipPath><g fill="#26323D" font-family="Times New Roman" clip-path="url(about:blank#mx-clip-63-1195-254-92-0)" text-anchor="middle" font-size="40px"><text x="190" y="1259.5">DUT memory</text></g></g><g transform="translate(0.5,0.5)" style="visibility: visible;"><rect x="848" y="1192" width="260" height="108" rx="6" ry="6" fill="#ddecdd" stroke="#26323d" stroke-width="2.5" pointer-events="all"/></g><g style=""><clipPath id="mx-clip-850-1189-256-104-0"><rect x="850" y="1189" width="256" height="104"/></clipPath><g fill="#26323D" font-family="Times New Roman" clip-path="url(about:blank#mx-clip-850-1189-256-104-0)" text-anchor="middle" font-size="40px"><text x="978" y="1235.5">Compatible</text><text x="978" y="1283.5">physical device</text></g></g><g transform="translate(0.5,0.5)" style="visibility: visible;"><path d="M 319 1087.5 L 392.47 1087.5" fill="none" stroke="white" stroke-width="12.5" stroke-miterlimit="10" pointer-events="stroke" visibility="hidden"/><path d="M 319 1087.5 L 392.47 1087.5" fill="none" stroke="#4f6070" stroke-width="4.5" stroke-miterlimit="10" pointer-events="stroke"/><path d="M 412.97 1087.5 L 392.47 1097.75 L 392.47 1077.25 Z" fill="#4f6070" stroke="#4f6070" stroke-width="4.5" stroke-miterlimit="10" pointer-events="all"/></g><g transform="translate(0.5,0.5)" style="visibility: visible;"><path d="M 655 1087.5 L 822.47 1087.5" fill="none" stroke="white" stroke-width="12.5" stroke-miterlimit="10" pointer-events="stroke" visibility="hidden"/><path d="M 655 1087.5 L 822.47 1087.5" fill="none" stroke="#4f6070" stroke-width="4.5" stroke-miterlimit="10" pointer-events="stroke"/><path d="M 842.97 1087.5 L 822.47 1097.75 L 822.47 1077.25 Z" fill="#4f6070" stroke="#4f6070" stroke-width="4.5" stroke-miterlimit="10" pointer-events="all"/></g><g transform="translate(0.5,0.5)" style="visibility: visible;"><rect x="660" y="977" width="183" height="93" fill="none" stroke="white" pointer-events="stroke" visibility="hidden" stroke-width="9"/><rect x="660" y="977" width="183" height="93" fill="none" stroke="none" pointer-events="all"/></g><g style=""><clipPath id="mx-clip-658-970-187-97-0"><rect x="658" y="970" width="187" height="97"/></clipPath><g fill="#26323D" font-family="Times New Roman" clip-path="url(about:blank#mx-clip-658-970-187-97-0)" text-anchor="middle" font-size="38px"><text x="751.5" y="1013">Control</text><text x="751.5" y="1059">mediation</text></g></g><g transform="translate(0.5,0.5)" style="visibility: visible;"><path d="M 190 1163.53 L 190 1172.47" fill="none" stroke="white" stroke-width="12.5" stroke-miterlimit="10" pointer-events="stroke" visibility="hidden"/><path d="M 190 1163.53 L 190 1172.47" fill="none" stroke="#4f6070" stroke-width="4.5" stroke-miterlimit="10" pointer-events="stroke"/><path d="M 190 1143.03 L 200.25 1163.53 L 179.75 1163.53 Z" fill="#4f6070" stroke="#4f6070" stroke-width="4.5" stroke-miterlimit="10" pointer-events="all"/><path d="M 190 1192.97 L 179.75 1172.47 L 200.25 1172.47 Z" fill="#4f6070" stroke="#4f6070" stroke-width="4.5" stroke-miterlimit="10" pointer-events="all"/></g><g transform="translate(0.5,0.5)" style="visibility: visible;"><path d="M 978 1138 L 978 1166.47" fill="none" stroke="white" stroke-width="12.5" stroke-miterlimit="10" pointer-events="stroke" visibility="hidden"/><path d="M 978 1138 L 978 1166.47" fill="none" stroke="#4f6070" stroke-width="4.5" stroke-miterlimit="10" pointer-events="stroke"/><path d="M 978 1186.97 L 967.75 1166.47 L 988.25 1166.47 Z" fill="#4f6070" stroke="#4f6070" stroke-width="4.5" stroke-miterlimit="10" pointer-events="all"/></g><g style="visibility: visible;"><path d="M 350.71 1246 L 816.29 1246" fill="none" stroke="white" stroke-width="14" stroke-miterlimit="10" pointer-events="stroke" visibility="hidden"/><path d="M 350.71 1246 L 816.29 1246" fill="none" stroke="#4477aa" stroke-width="6" stroke-miterlimit="10" pointer-events="stroke"/><path d="M 325.71 1246 L 350.71 1233.5 L 350.71 1258.5 Z" fill="#4477aa" stroke="#4477aa" stroke-width="6" stroke-miterlimit="10" pointer-events="all"/><path d="M 841.29 1246 L 816.29 1258.5 L 816.29 1233.5 Z" fill="#4477aa" stroke="#4477aa" stroke-width="6" stroke-miterlimit="10" pointer-events="all"/></g><g transform="translate(0.5,0.5)" style="visibility: visible;"><rect x="372" y="1178" width="430" height="50" fill="none" stroke="white" pointer-events="stroke" visibility="hidden" stroke-width="9"/><rect x="372" y="1178" width="430" height="50" fill="none" stroke="none" pointer-events="all"/></g><g style=""><clipPath id="mx-clip-370-1171-434-54-0"><rect x="370" y="1171" width="434" height="54"/></clipPath><g fill="#4477AA" font-family="Times New Roman" font-weight="bold" clip-path="url(about:blank#mx-clip-370-1171-434-54-0)" text-anchor="middle" font-size="40px"><text x="587" y="1216.5">Payload path</text></g></g><g transform="translate(0.5,0.5)" style="visibility: visible;"><rect x="40" y="1314" width="1060" height="45" fill="none" stroke="white" pointer-events="stroke" visibility="hidden" stroke-width="9"/><rect x="40" y="1314" width="1060" height="45" fill="none" stroke="none" pointer-events="all"/></g><g style=""><clipPath id="mx-clip-38-1307-1064-49-0"><rect x="38" y="1307" width="1064" height="49"/></clipPath><g fill="#26323D" font-family="Times New Roman" clip-path="url(about:blank#mx-clip-38-1307-1064-49-0)" text-anchor="middle" font-size="40px"><text x="570" y="1350">Configurable native view; mediated timing</text></g></g></g><g/><g/></g></svg>