<svg xmlns="http://www.w3.org/2000/svg" width="1100" height="735" viewBox="0 0 1100 735" style="left: 0px; top: 0px; width: 100%; height: 100%; display: block; min-width: 1096px; min-height: 733px;"><g><g/><g><g style="visibility: visible;"><rect x="15" y="15" width="1070" height="43" rx="6" ry="6" fill="#e7f1fa" stroke="none" pointer-events="all"/></g><g transform="translate(0.5,0.5)" style="visibility: visible;"><rect x="25" y="8" width="1050" height="51" fill="none" stroke="white" pointer-events="stroke" visibility="hidden" stroke-width="9"/><rect x="25" y="8" width="1050" height="51" fill="none" stroke="none" pointer-events="all"/></g><g style=""><g fill="#172B46" font-family="Times New Roman" font-weight="bold" font-size="36px"><text x="25" y="50.5">Configuration</text></g></g><g style="visibility: visible;"><rect x="25" y="79" width="475" height="128" fill="#f1f3f6" stroke="#50657a" stroke-width="2" pointer-events="all"/></g><g style="visibility: visible;"><path d="M 478 79 L 478 101 L 500 101" fill="none" stroke="white" stroke-width="9.8" stroke-miterlimit="10" pointer-events="stroke" visibility="hidden"/><path d="M 478 79 L 478 101 L 500 101" fill="none" stroke="#50657a" stroke-width="1.8" stroke-miterlimit="10" pointer-events="stroke"/></g><g style="visibility: visible;"><path d="M 478 79 L 500 101" fill="none" stroke="white" stroke-width="9.8" stroke-miterlimit="10" pointer-events="stroke" visibility="hidden"/><path d="M 478 79 L 500 101" fill="none" stroke="#50657a" stroke-width="1.8" stroke-miterlimit="10" pointer-events="stroke"/></g><g transform="translate(0.5,0.5)" style="visibility: visible;"><rect x="35" y="79" width="447" height="122" fill="none" stroke="white" pointer-events="stroke" visibility="hidden" stroke-width="9"/><rect x="35" y="79" width="447" height="122" fill="none" stroke="none" pointer-events="all"/></g><g style=""><g fill="#172B46" font-family="Times New Roman" text-anchor="middle" font-size="34px"><text x="258.5" y="115">Configuration image and</text><text x="258.5" y="156">BAR routes installed</text><text x="258.5" y="197">in the FPGA</text></g></g><g style="visibility: visible;"><rect x="650" y="125" width="425" height="92" rx="6" ry="6" fill="#e7f1fa" stroke="#50657a" stroke-width="2" pointer-events="all"/></g><g transform="translate(0.5,0.5)" style="visibility: visible;"><rect x="658" y="121" width="409" height="94" fill="none" stroke="white" pointer-events="stroke" visibility="hidden" stroke-width="9"/><rect x="658" y="121" width="409" height="94" fill="none" stroke="none" pointer-events="all"/></g><g style=""><g fill="#172B46" font-family="Times New Roman" text-anchor="middle" font-size="32px"><text x="862.5" y="164">DUT may use</text><text x="862.5" y="202">the updated mapping</text></g></g><g transform="translate(0.5,0.5)" style="visibility: visible;"><rect x="620" y="66" width="475" height="57" fill="none" stroke="white" pointer-events="stroke" visibility="hidden" stroke-width="9"/><rect x="620" y="66" width="475" height="57" fill="none" stroke="none" pointer-events="all"/></g><g style=""><g fill="#172B46" font-family="Times New Roman" font-weight="bold" text-anchor="middle" font-size="34px"><text x="857.5" y="110.5">C1: retire write</text></g></g><g transform="translate(0.5,0.5)" style="visibility: visible;"><path d="M 500 160 L 632.49 160" fill="none" stroke="white" stroke-width="10.6" stroke-miterlimit="10" pointer-events="stroke" visibility="hidden"/><path d="M 500 160 L 632.49 160" fill="none" stroke="#172b46" stroke-width="2.6" stroke-miterlimit="10" stroke-dasharray="13 10.4" pointer-events="stroke"/><path d="M 647.09 160 L 632.49 167.3 L 632.49 152.7 Z" fill="#172b46" stroke="#172b46" stroke-width="2.6" stroke-miterlimit="10" pointer-events="all"/></g><g style="visibility: visible;"><ellipse cx="575" cy="160" rx="9" ry="9" fill="#172b46" stroke="#172b46" stroke-width="2" pointer-events="all"/></g><g style="visibility: visible;"><rect x="15" y="225" width="1070" height="43" rx="6" ry="6" fill="#fff0e4" stroke="none" pointer-events="all"/></g><g transform="translate(0.5,0.5)" style="visibility: visible;"><rect x="25" y="218" width="1050" height="51" fill="none" stroke="white" pointer-events="stroke" visibility="hidden" stroke-width="9"/><rect x="25" y="218" width="1050" height="51" fill="none" stroke="none" pointer-events="all"/></g><g style=""><g fill="#172B46" font-family="Times New Roman" font-weight="bold" font-size="36px"><text x="25" y="260.5">Submission</text></g></g><g style="visibility: visible;"><rect x="25" y="289" width="475" height="128" fill="#f1f3f6" stroke="#50657a" stroke-width="2" pointer-events="all"/></g><g style="visibility: visible;"><path d="M 478 289 L 478 311 L 500 311" fill="none" stroke="white" stroke-width="9.8" stroke-miterlimit="10" pointer-events="stroke" visibility="hidden"/><path d="M 478 289 L 478 311 L 500 311" fill="none" stroke="#50657a" stroke-width="1.8" stroke-miterlimit="10" pointer-events="stroke"/></g><g style="visibility: visible;"><path d="M 478 289 L 500 311" fill="none" stroke="white" stroke-width="9.8" stroke-miterlimit="10" pointer-events="stroke" visibility="hidden"/><path d="M 478 289 L 500 311" fill="none" stroke="#50657a" stroke-width="1.8" stroke-miterlimit="10" pointer-events="stroke"/></g><g transform="translate(0.5,0.5)" style="visibility: visible;"><rect x="35" y="289" width="447" height="122" fill="none" stroke="white" pointer-events="stroke" visibility="hidden" stroke-width="9"/><rect x="35" y="289" width="447" height="122" fill="none" stroke="none" pointer-events="all"/></g><g style=""><g fill="#172B46" font-family="Times New Roman" text-anchor="middle" font-size="34px"><text x="258.5" y="325">Translated metadata and</text><text x="258.5" y="366">required input data</text><text x="258.5" y="407">visible to the device</text></g></g><g style="visibility: visible;"><rect x="650" y="335" width="425" height="92" rx="6" ry="6" fill="#fff0e4" stroke="#50657a" stroke-width="2" pointer-events="all"/></g><g transform="translate(0.5,0.5)" style="visibility: visible;"><rect x="658" y="331" width="409" height="94" fill="none" stroke="white" pointer-events="stroke" visibility="hidden" stroke-width="9"/><rect x="658" y="331" width="409" height="94" fill="none" stroke="none" pointer-events="all"/></g><g style=""><g fill="#172B46" font-family="Times New Roman" text-anchor="middle" font-size="32px"><text x="862.5" y="374">Physical device</text><text x="862.5" y="412">may execute</text></g></g><g transform="translate(0.5,0.5)" style="visibility: visible;"><rect x="620" y="276" width="475" height="57" fill="none" stroke="white" pointer-events="stroke" visibility="hidden" stroke-width="9"/><rect x="620" y="276" width="475" height="57" fill="none" stroke="none" pointer-events="all"/></g><g style=""><g fill="#172B46" font-family="Times New Roman" font-weight="bold" text-anchor="middle" font-size="34px"><text x="857.5" y="320.5">C2: submit work</text></g></g><g transform="translate(0.5,0.5)" style="visibility: visible;"><path d="M 500 370 L 632.49 370" fill="none" stroke="white" stroke-width="10.6" stroke-miterlimit="10" pointer-events="stroke" visibility="hidden"/><path d="M 500 370 L 632.49 370" fill="none" stroke="#172b46" stroke-width="2.6" stroke-miterlimit="10" stroke-dasharray="13 10.4" pointer-events="stroke"/><path d="M 647.09 370 L 632.49 377.3 L 632.49 362.7 Z" fill="#172b46" stroke="#172b46" stroke-width="2.6" stroke-miterlimit="10" pointer-events="all"/></g><g style="visibility: visible;"><ellipse cx="575" cy="370" rx="9" ry="9" fill="#172b46" stroke="#172b46" stroke-width="2" pointer-events="all"/></g><g style="visibility: visible;"><rect x="15" y="435" width="1070" height="43" rx="6" ry="6" fill="#e8f3ed" stroke="none" pointer-events="all"/></g><g transform="translate(0.5,0.5)" style="visibility: visible;"><rect x="25" y="428" width="1050" height="51" fill="none" stroke="white" pointer-events="stroke" visibility="hidden" stroke-width="9"/><rect x="25" y="428" width="1050" height="51" fill="none" stroke="none" pointer-events="all"/></g><g style=""><g fill="#172B46" font-family="Times New Roman" font-weight="bold" font-size="36px"><text x="25" y="470.5">Completion</text></g></g><g style="visibility: visible;"><rect x="25" y="499" width="475" height="128" fill="#f1f3f6" stroke="#50657a" stroke-width="2" pointer-events="all"/></g><g style="visibility: visible;"><path d="M 478 499 L 478 521 L 500 521" fill="none" stroke="white" stroke-width="9.8" stroke-miterlimit="10" pointer-events="stroke" visibility="hidden"/><path d="M 478 499 L 478 521 L 500 521" fill="none" stroke="#50657a" stroke-width="1.8" stroke-miterlimit="10" pointer-events="stroke"/></g><g style="visibility: visible;"><path d="M 478 499 L 500 521" fill="none" stroke="white" stroke-width="9.8" stroke-miterlimit="10" pointer-events="stroke" visibility="hidden"/><path d="M 478 499 L 500 521" fill="none" stroke="#50657a" stroke-width="1.8" stroke-miterlimit="10" pointer-events="stroke"/></g><g transform="translate(0.5,0.5)" style="visibility: visible;"><rect x="35" y="499" width="447" height="122" fill="none" stroke="white" pointer-events="stroke" visibility="hidden" stroke-width="9"/><rect x="35" y="499" width="447" height="122" fill="none" stroke="none" pointer-events="all"/></g><g style=""><g fill="#172B46" font-family="Times New Roman" text-anchor="middle" font-size="34px"><text x="258.5" y="555.5">Corresponding data effects</text><text x="258.5" y="596.5">visible in DUT memory</text></g></g><g style="visibility: visible;"><rect x="650" y="545" width="425" height="92" rx="6" ry="6" fill="#e8f3ed" stroke="#50657a" stroke-width="2" pointer-events="all"/></g><g transform="translate(0.5,0.5)" style="visibility: visible;"><rect x="658" y="541" width="409" height="94" fill="none" stroke="white" pointer-events="stroke" visibility="hidden" stroke-width="9"/><rect x="658" y="541" width="409" height="94" fill="none" stroke="none" pointer-events="all"/></g><g style=""><g fill="#172B46" font-family="Times New Roman" text-anchor="middle" font-size="32px"><text x="862.5" y="584">Driver may consume</text><text x="862.5" y="622">the completed result</text></g></g><g transform="translate(0.5,0.5)" style="visibility: visible;"><rect x="620" y="486" width="475" height="57" fill="none" stroke="white" pointer-events="stroke" visibility="hidden" stroke-width="9"/><rect x="620" y="486" width="475" height="57" fill="none" stroke="none" pointer-events="all"/></g><g style=""><g fill="#172B46" font-family="Times New Roman" font-weight="bold" text-anchor="middle" font-size="34px"><text x="857.5" y="530.5">C3: publish completion</text></g></g><g transform="translate(0.5,0.5)" style="visibility: visible;"><path d="M 500 580 L 632.49 580" fill="none" stroke="white" stroke-width="10.6" stroke-miterlimit="10" pointer-events="stroke" visibility="hidden"/><path d="M 500 580 L 632.49 580" fill="none" stroke="#172b46" stroke-width="2.6" stroke-miterlimit="10" stroke-dasharray="13 10.4" pointer-events="stroke"/><path d="M 647.09 580 L 632.49 587.3 L 632.49 572.7 Z" fill="#172b46" stroke="#172b46" stroke-width="2.6" stroke-miterlimit="10" pointer-events="all"/></g><g style="visibility: visible;"><ellipse cx="575" cy="580" rx="9" ry="9" fill="#172b46" stroke="#172b46" stroke-width="2" pointer-events="all"/></g><g transform="translate(0.5,0.5)" style="visibility: visible;"><rect x="20" y="642" width="1060" height="48" fill="none" stroke="white" pointer-events="stroke" visibility="hidden" stroke-width="9"/><rect x="20" y="642" width="1060" height="48" fill="none" stroke="none" pointer-events="all"/></g><g style=""><g fill="#172B46" font-family="Times New Roman" text-anchor="middle" font-size="32px"><text x="550" y="681">C3: software or direct DMA publication</text></g></g><g transform="translate(0.5,0.5)" style="visibility: visible;"><rect x="20" y="684" width="1060" height="48" fill="none" stroke="white" pointer-events="stroke" visibility="hidden" stroke-width="9"/><rect x="20" y="684" width="1060" height="48" fill="none" stroke="none" pointer-events="all"/></g><g style=""><g fill="#172B46" font-family="Times New Roman" text-anchor="middle" font-size="32px"><text x="550" y="723">Completion precedes its interrupt notification</text></g></g></g><g/><g/></g></svg>